<svg width="21" height="20" viewBox="0 0 21 20" fill="none" xmlns="http://www.w3.org/2000/svg">
<path d="M18.7003 8.71495V15.0807C18.7003 17.3011 16.9002 19.1012 14.6798 19.1012H4.77431C2.55386 19.1012 0.753839 17.3011 0.753839 15.0807V6.03463C0.753839 3.81419 2.55387 2.01416 4.77431 2.01416H11.7211" stroke="#5424FD" stroke-width="1.5" stroke-linecap="round"/>
<path d="M19.7114 1.22689C20.4003 1.88287 20.4003 2.94641 19.7114 3.60239L11.627 11.2996C11.2805 11.6296 10.862 11.883 10.4013 12.042L7.70438 12.9728C7.49915 13.0436 7.30032 12.8543 7.37471 12.6589L8.35231 10.0911C8.51931 9.65243 8.78547 9.25406 9.13199 8.92414L17.2164 1.22689C17.9054 0.570914 19.0224 0.570914 19.7114 1.22689Z" stroke="#5424FD" stroke-width="1.5"/>
</svg>
