<svg width="21" height="17" viewBox="0 0 21 17" fill="none" xmlns="http://www.w3.org/2000/svg">
<path d="M20.3392 5.38181L20.3392 4.62495L18.8255 4.62495L18.8255 5.38181L20.3392 5.38181ZM18.8255 10.4276C18.8255 10.8456 19.1644 11.1844 19.5824 11.1844C20.0004 11.1844 20.3392 10.8456 20.3392 10.4276L18.8255 10.4276ZM18.8255 5.38181L18.8255 10.4276L20.3392 10.4276L20.3392 5.38181L18.8255 5.38181Z" fill="#3708DC"/>
<path d="M4.44509 6.39096V13.7281V13.7281C7.91518 16.7525 13.0848 16.7525 16.5549 13.7281V13.7281V6.39096" stroke="#3708DC" stroke-width="1.5"/>
<path d="M8.09018 1.3367C9.60374 0.563661 11.3963 0.563662 12.9098 1.3367L19.9409 4.92778L12.9098 8.51886C11.3963 9.29189 9.60373 9.29189 8.09018 8.51886L1.05909 4.92778L8.09018 1.3367Z" stroke="#3708DC" stroke-width="1.5"/>
</svg>
