<svg width="21" height="20" viewBox="0 0 21 20" fill="none" xmlns="http://www.w3.org/2000/svg">
<mask id="path-1-inside-1_94_413" fill="white">
<path fill-rule="evenodd" clip-rule="evenodd" d="M19.9122 8.09913C20.4727 7.69928 20.4727 6.86638 19.9122 6.46653L11.1106 0.188162C10.4468 -0.285279 9.52558 0.189189 9.52558 1.00446V3.96874C4.22078 4.22996 0 8.61375 0 13.9834V19.9995L1.70199 15.9041C3.0354 12.6956 6.0856 10.5532 9.52558 10.3625V13.5612C9.52558 14.3765 10.4468 14.8509 11.1106 14.3775L19.9122 8.09913Z"/>
</mask>
<path d="M19.9122 6.46653L19.0388 7.69098L19.0388 7.69098L19.9122 6.46653ZM19.9122 8.09913L19.0388 6.87468L19.0388 6.87468L19.9122 8.09913ZM11.1106 0.188162L11.984 -1.03628V-1.03628L11.1106 0.188162ZM9.52558 3.96874L9.59955 5.47096L11.0296 5.40054V3.96874H9.52558ZM0 19.9995H-1.50404L1.38888 20.5767L0 19.9995ZM1.70199 15.9041L0.313112 15.3269H0.313112L1.70199 15.9041ZM9.52558 10.3625H11.0296V8.77273L9.44232 8.86074L9.52558 10.3625ZM11.1106 14.3775L10.2371 13.1531L11.1106 14.3775ZM19.0388 7.69098C18.7585 7.49105 18.7585 7.0746 19.0388 6.87468L20.7856 9.32358C22.187 8.32395 22.187 6.24172 20.7856 5.24209L19.0388 7.69098ZM10.2371 1.41261L19.0388 7.69098L20.7856 5.24209L11.984 -1.03628L10.2371 1.41261ZM11.0296 1.00446C11.0296 1.41209 10.569 1.64933 10.2371 1.41261L11.984 -1.03628C10.3247 -2.21989 8.02154 -1.03372 8.02154 1.00446H11.0296ZM11.0296 3.96874V1.00446H8.02154V3.96874H11.0296ZM1.50404 13.9834C1.50404 9.41963 5.09171 5.69293 9.59955 5.47096L9.45161 2.46652C3.34985 2.76698 -1.50404 7.80787 -1.50404 13.9834H1.50404ZM1.50404 19.9995V13.9834H-1.50404V19.9995H1.50404ZM0.313112 15.3269L-1.38888 19.4223L1.38888 20.5767L3.09087 16.4813L0.313112 15.3269ZM9.44232 8.86074C5.42805 9.08329 1.86903 11.583 0.313112 15.3269L3.09087 16.4813C4.20176 13.8082 6.74316 12.0231 9.60884 11.8642L9.44232 8.86074ZM11.0296 13.5612V10.3625H8.02154V13.5612H11.0296ZM10.2371 13.1531C10.569 12.9163 11.0296 13.1536 11.0296 13.5612H8.02154C8.02154 15.5994 10.3247 16.7856 11.984 15.6019L10.2371 13.1531ZM19.0388 6.87468L10.2371 13.1531L11.984 15.6019L20.7856 9.32358L19.0388 6.87468Z" fill="white" mask="url(#path-1-inside-1_94_413)"/>
</svg>
