<svg width="16" height="16" viewBox="0 0 16 16" fill="none" xmlns="http://www.w3.org/2000/svg">
<g clip-path="url(#clip0_24_485)">
<path d="M8.00004 1.33337C5.42004 1.33337 3.33337 3.42004 3.33337 6.00004C3.33337 9.50004 8.00004 14.6667 8.00004 14.6667C8.00004 14.6667 12.6667 9.50004 12.6667 6.00004C12.6667 3.42004 10.58 1.33337 8.00004 1.33337ZM4.66671 6.00004C4.66671 4.16004 6.16004 2.66671 8.00004 2.66671C9.84004 2.66671 11.3334 4.16004 11.3334 6.00004C11.3334 7.92004 9.41337 10.7934 8.00004 12.5867C6.61337 10.8067 4.66671 7.90004 4.66671 6.00004Z" fill="black"/>
<path d="M8.00004 7.66671C8.92052 7.66671 9.66671 6.92052 9.66671 6.00004C9.66671 5.07957 8.92052 4.33337 8.00004 4.33337C7.07957 4.33337 6.33337 5.07957 6.33337 6.00004C6.33337 6.92052 7.07957 7.66671 8.00004 7.66671Z" fill="black"/>
</g>
<defs>
<clipPath id="clip0_24_485">
<rect width="16" height="16" fill="white"/>
</clipPath>
</defs>
</svg>
