<svg width="23" height="12" viewBox="0 0 23 12" fill="none" xmlns="http://www.w3.org/2000/svg">
<path d="M22.2292 6.44727C22.6549 6.44727 23 6.10218 23 5.67648C23 5.25079 22.6549 4.9057 22.2292 4.9057V6.44727ZM0.225829 5.13146C-0.0751795 5.43247 -0.0751795 5.9205 0.225829 6.22151L5.13105 11.1267C5.43206 11.4277 5.92009 11.4277 6.2211 11.1267C6.52211 10.8257 6.52211 10.3377 6.2211 10.0367L1.8609 5.67648L6.2211 1.31629C6.52211 1.01528 6.52211 0.527245 6.2211 0.226236C5.92009 -0.0747728 5.43206 -0.0747728 5.13105 0.226236L0.225829 5.13146ZM22.2292 4.9057L0.770854 4.9057V6.44727L22.2292 6.44727V4.9057Z" fill="white"/>
</svg>
