<svg width="5" height="6" viewBox="0 0 5 6" fill="none" xmlns="http://www.w3.org/2000/svg">
<path d="M1.29972 3.918C1.406 4.10233 1.523 4.27919 1.65003 4.4475C1.24726 4.6821 0.789838 4.7996 0.277778 4.8V6C1.11601 6 1.86493 5.7597 2.5 5.2941C3.13507 5.7597 3.88399 6 4.72222 6V4.8C4.21123 4.8 3.75382 4.68241 3.35 4.44724C3.47703 4.27902 3.59402 4.10225 3.70028 3.918C4.02052 3.35573 4.25602 2.74208 4.39799 2.1H5V0.9H3.05556V0H1.94444V0.9H0V2.1H0.602014C0.743976 2.74208 0.97948 3.35573 1.29972 3.918ZM3.24757 2.1C3.13262 2.5153 2.96804 2.91265 2.75799 3.282C2.6795 3.41818 2.59335 3.54903 2.5 3.6738C2.41344 3.55824 2.3331 3.4374 2.25938 3.31189C2.04079 2.93431 1.87023 2.5267 1.75229 2.1H3.24757Z" fill="#3708DC"/>
</svg>
