<svg width="23" height="23" viewBox="0 0 23 23" fill="none" xmlns="http://www.w3.org/2000/svg">
<path d="M4.00907 1.11517C4.50454 0.627622 5.30786 0.627622 5.80333 1.11517L9.08635 4.34571C9.58182 4.83326 9.58182 5.62373 9.08635 6.11128L7.26478 7.90374C6.97638 8.18753 6.93559 8.62214 7.14072 8.9499C8.1332 10.5357 8.97987 11.7018 10.0148 12.7264C11.0503 13.7516 12.2465 14.6078 13.9073 15.6078L14.3046 14.9689L13.9073 15.6078C14.2399 15.8081 14.6804 15.7678 14.9684 15.4845L16.7901 13.6919C17.2856 13.2043 18.0889 13.2043 18.5844 13.6919L21.8674 16.9224C22.3629 17.41 22.3629 18.2005 21.8674 18.688L19.8402 20.6828C18.6701 21.8341 16.9793 22.2178 15.576 21.568C9.39092 18.7038 3.99306 13.3922 1.0823 7.306C0.421906 5.92516 0.811825 4.26131 1.98184 3.11L4.00907 1.11517Z" stroke="white" stroke-width="1.5"/>
</svg>
