<svg width="28" height="28" viewBox="0 0 28 28" fill="none" xmlns="http://www.w3.org/2000/svg">
<g clip-path="url(#clip0_94_616)">
<path d="M14 0C6.26802 0 0 6.26802 0 14C0 21.7321 6.26802 28.0001 14 28.0001C21.7321 28.0001 28.0001 21.7321 28.0001 14C28.0001 6.26802 21.7321 0 14 0ZM20.0931 20.3179C19.915 20.6225 19.5947 20.7923 19.2656 20.7924C19.1015 20.7924 18.9353 20.7502 18.7834 20.6614C16.2676 19.1911 13.3612 18.9549 11.3656 19.0155C9.15497 19.0828 7.53383 19.5192 7.51773 19.5236C7.00814 19.6628 6.48153 19.363 6.34175 18.8534C6.20203 18.344 6.50085 17.8177 7.01017 17.6774C7.08324 17.6573 8.82773 17.1835 11.2536 17.1034C12.6825 17.0563 14.0581 17.1559 15.3417 17.3994C16.9674 17.7078 18.4504 18.2491 19.7495 19.0083C20.2061 19.2751 20.3598 19.8615 20.0931 20.3179ZM21.8729 16.6213C21.6621 16.9821 21.2826 17.1833 20.8928 17.1833C20.6984 17.1833 20.5015 17.1334 20.3216 17.0282C17.3416 15.2866 13.8988 15.0068 11.535 15.0787C8.91645 15.1583 6.99616 15.6753 6.97711 15.6805C6.37363 15.8452 5.74973 15.4902 5.58415 14.8867C5.41863 14.2832 5.77265 13.6598 6.37592 13.4936C6.46248 13.4698 8.52884 12.9085 11.4024 12.8137C13.0951 12.7579 14.7244 12.8759 16.2448 13.1643C18.1705 13.5296 19.9271 14.1708 21.466 15.0701C22.0068 15.3861 22.1889 16.0806 21.8729 16.6213ZM22.967 13.2602C22.7286 13.2602 22.4872 13.1989 22.2665 13.0699C15.1817 8.92948 5.99146 11.391 5.89947 11.4164C5.15876 11.6205 4.39304 11.1854 4.18903 10.4448C3.98494 9.70416 4.41995 8.93838 5.1606 8.73436C5.26673 8.7051 7.80136 8.01664 11.326 7.90042C13.4024 7.83207 15.4009 7.97663 17.2658 8.33039C19.6279 8.77849 21.7827 9.56497 23.6702 10.6681C24.3334 11.0557 24.5569 11.9076 24.1693 12.5708C23.9106 13.0134 23.4452 13.2602 22.967 13.2602Z" fill="#6438FE"/>
</g>
<defs>
<clipPath id="clip0_94_616">
<rect width="27.7481" height="27.7481" fill="white" transform="scale(1.00908)"/>
</clipPath>
</defs>
</svg>
