<svg width="7" height="7" viewBox="0 0 7 7" fill="none" xmlns="http://www.w3.org/2000/svg">
<path d="M2.78798 0.517047C3.01206 -0.17261 3.98774 -0.172609 4.21182 0.517048L4.52488 1.48052C4.62509 1.78895 4.9125 1.99776 5.2368 1.99776H6.24986C6.975 1.99776 7.2765 2.92569 6.68985 3.35192L5.87027 3.94738C5.60791 4.138 5.49812 4.47587 5.59834 4.7843L5.91139 5.74777C6.13547 6.43743 5.34613 7.01092 4.75947 6.58469L3.93989 5.98923C3.67753 5.79861 3.32227 5.79861 3.05991 5.98923L2.24033 6.58469C1.65367 7.01092 0.86433 6.43743 1.08841 5.74777L1.40146 4.7843C1.50168 4.47587 1.39189 4.138 1.12953 3.94738L0.309953 3.35192C-0.276704 2.92569 0.0247993 1.99776 0.749947 1.99776H1.763C2.0873 1.99776 2.37471 1.78894 2.47493 1.48052L2.78798 0.517047Z" fill="#3708DC"/>
</svg>
